<svg aria-hidden="true" style="position: absolute; width: 0; height: 0; overflow: hidden;" version="1.1" xmlns="http://www.w3.org/2000/svg" xmlns:xlink="http://www.w3.org/1999/xlink">
<defs>
<symbol id="icon-icon041" viewBox="0 0 55 32">
<path fill="#fffdfb" style="fill: var(--color1, #fffdfb)" d="M32.462 4.704c9.528 0 17.324 10.015 17.324 12.519s-7.796 10.849-17.324 10.849c-9.528 0-16.458-10.849-16.458-10.849s6.93-12.519 16.458-12.519z"></path>
<path fill="none" stroke="#fffdfb" style="stroke: var(--color1, #fffdfb)" stroke-linejoin="round" stroke-linecap="round" stroke-miterlimit="4" stroke-width="5.8182" d="M5.61 7.208l10.394 10.015M16.004 17.223l-10.394 10.015M16.004 17.223c0 0 6.93 10.849 16.458 10.849s17.324-8.346 17.324-10.849-7.796-12.519-17.324-12.519c-9.528 0-16.458 12.519-16.458 12.519z"></path>
</symbol>
<symbol id="icon-icon04" viewBox="0 0 48 32">
<path fill="#fffdfb" style="fill: var(--color1, #fffdfb); stroke: var(--color1, #fffdfb)" stroke="#fffdfb" stroke-linejoin="miter" stroke-linecap="butt" stroke-miterlimit="4" stroke-width="0.9143" d="M44.949 10.021v0c-0.065-0.436-0.46-0.783-0.953-0.783h-4.089l-0.082-0.354c-0.595-2.57-2.944-3.341-3.214-3.427l-0.18-0.058-0.087-0.168c-1.27-2.451-3.894-2.574-4.188-2.584l-0.185-0.006-0.129-0.134c-1.553-1.613-3.655-1.629-4.782-1.35l-0.178 0.044-0.159-0.091c-0.999-0.572-3.023-1.127-4.989-0l-0.159 0.091-0.178-0.044c-1.127-0.279-3.23-0.262-4.783 1.35l-0.129 0.134-0.185 0.006c-0.291 0.010-2.919 0.133-4.189 2.585l-0.087 0.168-0.18 0.058c-0.274 0.088-2.621 0.862-3.214 3.427l-0.082 0.354h-4.089c-0.493 0-0.888 0.347-0.953 0.783v0l-3.041 20.487c-0.038 0.254 0.040 0.515 0.22 0.715M44.949 10.021l-44.262 21.202M44.949 10.021l3.042 20.486c0.038 0.254-0.041 0.515-0.22 0.715M44.949 10.021l2.821 21.201M0.687 31.223c0.181 0.201 0.448 0.32 0.733 0.32h45.618c0.285 0 0.552-0.119 0.733-0.32M0.687 31.223l47.084-0M14.023 5.613l-0 0c-0.198 0.712-0.813 1.227-1.546 1.329-0.006 0.003-0.014 0.008-0.023 0.013-0.048 0.028-0.115 0.074-0.201 0.139-0.169 0.129-0.384 0.312-0.609 0.527-0.231 0.22-0.462 0.463-0.664 0.702h26.564c-0.188-0.28-0.388-0.553-0.574-0.79-0.167-0.213-0.318-0.39-0.431-0.511-0.036-0.039-0.067-0.070-0.090-0.093-0.699-0.126-1.278-0.629-1.47-1.317l-20.955-0zM14.023 5.613c0.088-0.317 0.465-0.681 1.051-0.956 0.572-0.268 1.188-0.377 1.567-0.315 0.75 0.122 1.51-0.207 1.913-0.848 0.194-0.309 0.583-0.575 1.056-0.71 0.473-0.135 0.954-0.116 1.304 0.049 0.687 0.324 1.511 0.212 2.080-0.289 0.281-0.247 0.736-0.397 1.233-0.397s0.952 0.149 1.234 0.397c0.569 0.501 1.393 0.613 2.080 0.289l0-0M14.023 5.613l13.519-2.781M27.542 2.832c0.336-0.159 0.953-0.188 1.593-0.044 0.309 0.069 0.599 0.174 0.834 0.303 0.239 0.131 0.396 0.273 0.478 0.403M27.542 2.832l4.818 1.51M32.361 4.342l-0 0c-0.749 0.122-1.51-0.206-1.913-0.848M32.361 4.342c0.387-0.063 1.003 0.049 1.573 0.32M32.361 4.342l1.573 0.32M30.447 3.494l0 0c-0-0-0-0-0-0zM33.934 4.662c0.586 0.278 0.959 0.642 1.045 0.951l-1.045-0.951zM12.326 6.040h-0c-0.142 0.016-0.271 0.089-0.338 0.129-0.088 0.052-0.186 0.121-0.287 0.197-0.203 0.154-0.443 0.361-0.688 0.594-0.481 0.458-1.022 1.061-1.317 1.602l-0.368 0.676h29.802l-0.369-0.676c-0.301-0.552-0.717-1.142-1.072-1.593-0.178-0.226-0.346-0.424-0.481-0.57-0.067-0.072-0.133-0.138-0.192-0.189-0.029-0.025-0.064-0.054-0.103-0.080l-0.002-0.001c-0.023-0.016-0.113-0.075-0.235-0.089l-0-0c-0.401-0.045-0.718-0.319-0.816-0.672v-0c-0.195-0.703-0.879-1.222-1.534-1.533-0.67-0.318-1.48-0.499-2.113-0.396-0.4 0.065-0.792-0.113-0.992-0.432v-0c-0.193-0.307-0.492-0.543-0.812-0.718-0.324-0.178-0.697-0.309-1.073-0.394-0.732-0.164-1.584-0.173-2.183 0.11-0.362 0.171-0.794 0.109-1.086-0.148v-0c-0.494-0.435-1.187-0.626-1.839-0.625s-1.344 0.192-1.836 0.625v0c-0.292 0.257-0.724 0.319-1.086 0.148v0c-0.599-0.283-1.318-0.279-1.944-0.101-0.625 0.178-1.234 0.552-1.58 1.103l-0 0c-0.2 0.319-0.591 0.497-0.991 0.432l-0-0c-0.623-0.101-1.431 0.075-2.102 0.39-0.657 0.308-1.346 0.826-1.544 1.539-0.098 0.353-0.415 0.627-0.816 0.672zM12.496 6.933c0 0-0 0-0.001 0.001l0.001-0.001zM0.971 30.773l-0.080 0.526h46.675l-0.080-0.526-3.239-21.29h-40.036l-3.24 21.29z"></path>
</symbol>
<symbol id="icon-dot" viewBox="0 0 32 32">
<path fill="#fac663" style="fill: var(--color2, #fac663)" d="M32.001 16c0 8.837-7.163 16-16 16s-16-7.163-16-16c0-8.837 7.163-16 16-16s16 7.163 16 16z"></path>
</symbol>
<symbol id="icon-button_paw" viewBox="0 0 37 32">
<path fill="#ff7236" style="fill: var(--color3, #ff7236)" d="M29.873 11.599c-5.27 3.023-4.373 11.845 1.344 11.845 2.466 0 4.599-1.854 5.549-4.223 2.194-5.473-2.369-10.218-6.893-7.622z"></path>
<path fill="#ff7236" style="fill: var(--color3, #ff7236)" d="M24.46 12.692c6.323 0 8.217-10.738 2.209-12.503-2.737-0.804-5.849 1.125-6.849 4.652-1.122 3.953 1.085 7.851 4.64 7.851z"></path>
<path fill="#ff7236" style="fill: var(--color3, #ff7236)" d="M22.834 31.805c-0.878-0.243-2.437-0.399-4.068-0.422-1.724-0.025-3.53 0.098-4.698 0.422-3.155 0.879-7.448-1.247-6.506-5.664 0.871-4.083 4.002-3.85 4.742-7.719 0.746-3.91 3.644-5.797 6.462-5.65 2.608 0.137 5.146 2.017 5.837 5.651 0.736 3.872 3.86 3.637 4.73 7.718 0.945 4.42-3.357 6.535-6.499 5.664z"></path>
<path fill="#ff7236" style="fill: var(--color3, #ff7236)" d="M13.331 12.692c1.789 0 3.325-1.039 4.178-2.629 2.537-4.728-1.63-11.272-6.388-9.871-6.018 1.77-4.11 12.499 2.21 12.499z"></path>
<path fill="#ff7236" style="fill: var(--color3, #ff7236)" d="M10.473 19.929c2.030-4.968-2.782-11.036-7.378-9.127-5.536 2.3-3.095 12.218 2.993 12.218 1.954 0 3.614-1.203 4.386-3.091z"></path>
<path fill="#ff7236" style="fill: var(--color3, #ff7236)" d="M22.834 31.805c-0.878-0.243-2.437-0.399-4.068-0.422v-18.611c2.608 0.137 5.146 2.017 5.837 5.651 0.736 3.872 3.86 3.637 4.73 7.718 0.945 4.42-3.357 6.535-6.499 5.664z"></path>
</symbol>
<symbol id="icon-fish" viewBox="0 0 103 32">
<path fill="#fab751" style="fill: var(--color4, #fab751)" d="M78.587 11.031c1.959 2.338 1.522 8.379-0.677 10.052-1.223-3.455-0.793-6.734 0.677-10.052zM69.767 24.84c-1.801-3.808-1.006-14.674 0.467-17.452 2.899 3.856 2.681 13.076-0.467 17.452zM19.286 9.294c2.442-0.005 4.161 1.75 4.162 4.249 0.002 2.461-1.798 4.308-4.171 4.279-2.378-0.027-4.064-1.781-4.079-4.235-0.017-2.546 1.644-4.287 4.088-4.293zM60.52 4.164c4.849 6.518 3.817 19.007-0.641 23.705 0.215-7.896 0.424-15.676 0.641-23.705zM32.659 2.591c5.908 8.56 4.272 21.074-0.626 26.306 1.273-8.908 0.957-17.602 0.626-26.306zM49.662 29.341c1.595-8.954 1.69-17.819 1.668-26.956 4.83 6.744 4.37 21.111-1.668 26.956zM41.136 29.593c0.834-9.128 2.346-18.245 0.621-27.436 6.079 6.767 5.253 19.617-0.621 27.436zM95.41 16.558c2.808-1.725 4.933-3.965 6.353-6.815 1.869-3.763 0.44-6.18-3.749-6.548-2.243-0.198-4.335 0.303-6.211 1.445-1.723 1.048-3.31 2.324-4.945 3.516-0.436 0.318-0.827 0.696-1.248 1.037-1.695 1.365-3.462 1.553-5.473 0.608-3.662-1.72-7.311-3.507-11.097-4.917-8.003-2.979-16.348-4.405-24.871-4.796-12.92-0.596-25.273 1.845-37.090 7.031-1.865 0.819-3.56 2.040-5.304 3.125-0.419 0.259-0.754 0.682-1.057 1.082-1.016 1.327-0.978 2.696 0.274 3.803 9.568 8.474 20.174 14.909 33.18 16.353 12.607 1.397 24.889 0.050 36.622-4.998 3.217-1.381 6.304-3.074 9.444-4.635 0.998-0.496 1.991-1.005 2.956-1.557 0.587-0.337 0.851-0.157 1.196 0.376 0.956 1.471 1.884 2.981 3.017 4.308 2.249 2.634 5.141 3.642 8.558 2.848 2.418-0.56 3.487-2.224 3.087-4.66-0.431-2.605-1.834-4.686-3.641-6.607z"></path>
</symbol>
<symbol id="icon-background_paw" viewBox="0 0 28 32">
<path fill="#fac663" style="fill: var(--color2, #fac663)" opacity="0.15" d="M8.422 8.696c3.49 4.278-0.141 11.46-4.993 9.598-2.093-0.803-3.301-3.069-3.337-5.386-0.082-5.352 5.334-7.885 8.33-4.212z"></path>
<path fill="#fac663" style="fill: var(--color2, #fac663)" opacity="0.15" d="M12.661 11.385c-5.367-2.060-3.482-11.774 2.191-11.313 2.585 0.211 4.599 2.859 4.3 6.173-0.334 3.714-3.474 6.298-6.492 5.14z"></path>
<path fill="#fac663" style="fill: var(--color2, #fac663)" opacity="0.15" d="M7.825 28.108c0.824 0.080 2.198 0.456 3.59 0.968 1.472 0.54 2.964 1.233 3.85 1.888 2.392 1.773 6.727 1.37 7.364-2.679 0.588-3.743-2.144-4.566-1.514-8.085 0.639-3.556-1.208-6.099-3.647-6.892-2.258-0.734-5.024 0.033-6.792 2.886-1.884 3.040-4.459 1.824-6.525 4.998-2.24 3.437 0.724 6.63 3.674 6.916z"></path>
<path fill="#fac663" style="fill: var(--color2, #fac663)" opacity="0.15" d="M22.106 15.011c-1.518-0.583-2.484-1.963-2.692-3.588-0.616-4.832 5.050-9.019 8.632-6.282 4.532 3.46-0.576 11.929-5.941 9.87z"></path>
<path fill="#fac663" style="fill: var(--color2, #fac663)" opacity="0.15" d="M22.179 22.073c-0.108-4.87 5.951-8.443 9.231-5.328 3.951 3.752-1.347 11.36-6.514 9.376-1.658-0.637-2.676-2.196-2.717-4.048z"></path>
</symbol>
<symbol id="icon-icon02" viewBox="0 0 41 32">
<path fill="#fffdfb" style="fill: var(--color1, #fffdfb)" d="M40.648 12.648c-0.016-0.352-0.223-1.004-1.427-1.418l-32.099-11.048c-1.645-0.567-3.471 0.239-4.070 1.797l-2.824 7.344c-0.599 1.558 0.253 3.286 1.898 3.853l9.355 3.219c-0.178 1.024 0.119 2.035 0.764 2.809l-1.993 5.183c-0.092 0.239-0.334 0.399-0.602 0.399h-5.839v-1.804c0-0.994-0.855-1.804-1.905-1.804h-1.27c-0.351 0-0.635 0.269-0.635 0.601v9.62c0 0.332 0.284 0.601 0.635 0.601h1.27c1.051 0 1.905-0.809 1.905-1.804v-1.804h5.839c1.865 0 3.546-1.114 4.183-2.773l1.951-5.074c1.116-0.148 2.131-0.765 2.733-1.729l10.933 3.762c0.357 0.123 0.723 0.182 1.083 0.182 1.092-0 2.129-0.537 2.71-1.434l1.255 0.432c0.142 0.049 0.289 0.073 0.435 0.073 0.183 0 0.365-0.038 0.536-0.113 0.307-0.136 0.54-0.376 0.656-0.678l1.738-4.521c0.211-0.55-0.030-1.153-0.542-1.442l2.036-0.899c1.161-0.513 1.307-1.179 1.291-1.531zM2.541 30.196c0 0.331-0.285 0.601-0.635 0.601h-0.635v-8.417h0.635c0.35 0 0.635 0.27 0.635 0.601v7.215zM12.639 25.209c-0.455 1.185-1.657 1.982-2.989 1.982h-5.839v-1.202h5.839c0.8 0 1.522-0.478 1.796-1.19l1.823-4.742c0.209 0.119 0.433 0.221 0.671 0.303 0.169 0.058 0.339 0.104 0.51 0.139l-1.811 4.71zM15.331 19.376c-0.015-0-0.029-0-0.044 0.001-0.302 0.004-0.611-0.043-0.913-0.147-0.353-0.122-0.661-0.309-0.913-0.542-0.023-0.027-0.049-0.051-0.077-0.074-0.473-0.477-0.726-1.124-0.678-1.796l4.586 1.578c-0.464 0.603-1.19 0.958-1.961 0.981zM36.669 16.108l-1.737 4.521-1.195-0.412 1.648-4.286 0.337-0.149 0.947 0.325zM38.82 13.089l-5.164 2.279c-1.119 0.494-3.044 0.573-4.204 0.174l-24.34-8.375c-0.33-0.113 0.499 0.458 0.38 0.771s-1.144 0.246-0.814 0.359l24.34 8.375c0.639 0.22 1.427 0.328 2.231 0.328 0.879 0 1.777-0.129 2.52-0.378l-1.442 3.75c-0.359 0.935-1.455 1.418-2.442 1.078l-27.325-9.403c-0.987-0.34-1.498-1.377-1.139-2.312l1.087-2.826c0.362 0.527 0.901 0.952 1.573 1.183l0.597 0.206c0.329 0.114 0.694-0.047 0.814-0.359s-0.050-0.657-0.38-0.771l-0.597-0.206c-0.987-0.34-1.498-1.377-1.139-2.311l0.869-2.26c0.359-0.935 1.455-1.418 2.442-1.078l32.099 11.049c0.408 0.14 0.559 0.287 0.589 0.341-0.026 0.056-0.162 0.215-0.556 0.388z"></path>
<path fill="#fffdfb" style="fill: var(--color1, #fffdfb)" d="M35.424 14.588l3.395-1.499c0.393-0.174 0.53-0.332 0.556-0.388-0.031-0.054-0.181-0.2-0.589-0.341l-32.099-11.049c-0.987-0.34-2.083 0.143-2.442 1.078l-0.869 2.26c-0.359 0.935 0.152 1.971 1.139 2.311l24.937 8.581c1.16 0.4 3.086 0.32 4.204-0.174l1.768-0.781z"></path>
</symbol>
<symbol id="icon-icon03" viewBox="0 0 53 32">
<path fill="#fffdfb" style="fill: var(--color1, #fffdfb)" d="M52.473 18.12c-0.23-0.232-4.599-5.691-14.141-5.866-0.92-1.626-4.426-6.911-10.117-6.911h-0.172l-2.529-4.878c-0.172-0.29-0.46-0.465-0.747-0.465h-3.909c-0.345 0-0.632 0.174-0.747 0.465l-2.299 4.82h-0.747c-0.23 0-5.633-0.407-11.267 6.911h-4.369c-0.402 0-0.747 0.29-0.862 0.697-0.057 0.348-1.782 8.711 1.092 12.312 0.92 1.103 2.127 1.684 3.621 1.684h1.207c0.402 2.904 2.874 5.111 5.863 5.111s5.461-2.207 5.863-5.111h16.785c0.402 2.904 2.874 5.111 5.863 5.111s5.461-2.207 5.863-5.111h5.059c0.46 0 0.862-0.407 0.862-0.871v-7.376c0-0.174-0.057-0.407-0.172-0.523zM28.215 7.027c4.024 0 6.783 3.368 8.048 5.227h-12.474v-5.227h4.426zM21.432 1.742h2.817l1.839 3.601h-6.381l1.724-3.601zM17.005 7.027h5.116v5.227h-14.083c4.656-5.401 8.852-5.227 8.967-5.227zM12.349 30.316c-2.299 0-4.196-1.916-4.196-4.24s1.897-4.239 4.196-4.239 4.196 1.916 4.196 4.239c0.058 2.323-1.839 4.24-4.196 4.24zM40.861 30.316c-2.299 0-4.196-1.916-4.196-4.24s1.897-4.239 4.196-4.239c2.299 0 4.196 1.916 4.196 4.239s-1.839 4.24-4.196 4.24zM50.921 25.205h-4.196c-0.402-2.904-2.874-5.111-5.863-5.111s-5.461 2.207-5.863 5.111h-16.785c-0.402-2.904-2.874-5.111-5.863-5.111s-5.461 2.207-5.863 5.111h-1.207c-0.977 0-1.724-0.348-2.299-1.045-1.782-2.265-1.322-7.55-0.862-10.163h35.697c7.99 0 12.187 4.007 13.106 4.995v6.214z"></path>
<path fill="#fffdfb" style="fill: var(--color1, #fffdfb)" d="M21.432 1.742h2.817l1.839 3.601h-6.381l1.724-3.601z"></path>
<path fill="#fffdfb" style="fill: var(--color1, #fffdfb)" d="M12.349 30.316c-2.299 0-4.196-1.916-4.196-4.24s1.897-4.239 4.196-4.239 4.196 1.916 4.196 4.239c0.058 2.323-1.839 4.24-4.196 4.24z"></path>
<path fill="#fffdfb" style="fill: var(--color1, #fffdfb)" d="M40.861 30.316c-2.299 0-4.196-1.916-4.196-4.24s1.897-4.239 4.196-4.239c2.299 0 4.196 1.916 4.196 4.239s-1.839 4.24-4.196 4.24z"></path>
</symbol>
<symbol id="icon-icon05" viewBox="0 0 39 32">
<path fill="#fffdfb" style="fill: var(--color1, #fffdfb)" d="M38.217 3.933c-0.272-0.217-0.653-0.269-0.995-0.167-1.271 0.382-2.227 1.144-2.686 1.567-0.849-0.242-1.767-0.242-2.616 0-0.465-0.428-1.439-1.203-2.733-1.581-0.386-0.112-0.804-0.001-1.067 0.292-0.223 0.248-0.279 0.591-0.171 0.898 0.323 0.916 0.845 2.359 1.028 2.863-0.081 0.252-0.131 0.516-0.148 0.787-0.016 0.261-0.011 0.51 0.012 0.749l-0.361 0.71c-0.237 0.466-0.71 0.789-1.26 0.859-1.999 0.256-5.89 0.772-9.491 1.358-4.661 0.758-6.508 1.257-7.3 1.563-0.676-0.953-1.638-1.728-2.759-2.214-1.701-0.738-4.548-2.343-4.496-4.801 0.047-2.224 0.954-3.538 1.706-4.249 0.321-0.303 0.49-0.721 0.462-1.146s-0.249-0.822-0.608-1.089c-0.694-0.515-1.687-0.425-2.259 0.204-1.905 2.097-2.362 5-2.464 6.544-0.103 1.556 0.39 2.997 1.465 4.28 0.771 0.921 1.824 1.741 3.129 2.438 1.265 0.676 2.179 1.755 2.575 3.039 0.035 0.113 0.051 0.23 0.049 0.347l-0.013 0.593c-0.006 0.29-0.031 0.58-0.074 0.867l-0.434 2.87c-0.17 1.126-0.949 2.073-2.040 2.593-0.758 0.361-1.191 1.131-1.077 1.914l0.792 5.48c0.041 0.284 0.302 0.495 0.611 0.495h3.259c0.132 0 0.263-0.032 0.371-0.103 0.219-0.145 0.308-0.394 0.24-0.621l-0.035-0.117c-0.256-0.855-0.957-1.509-1.848-1.761l-0.153-1.172c-0.043-0.329 0.158-0.643 0.49-0.765l3.114-1.149c-0.001 0.031-0.002 0.061-0.004 0.090-0 0.004-0.001 0.007-0.001 0.011-0.031 0.542-0.054 1.030-0.068 1.451-0.020 0.578 0.218 1.137 0.658 1.546l2.614 2.424c0.116 0.107 0.272 0.167 0.436 0.167h3.779c0.325 0 0.599-0.247 0.617-0.548 0.061-1.048-0.734-1.955-1.854-2.112l-1.081-0.152-0.446-0.651c-0.219-0.32-0.212-0.729 0.018-1.042l2.947-4.004c0.896-0.257 4.673-1.27 6.889-0.79 0.029 0.271 0.11 0.535 0.239 0.783l4.297 8.193c0.103 0.197 0.318 0.321 0.554 0.321h2.923c0.13 0 0.259-0.031 0.365-0.1 0.218-0.14 0.311-0.384 0.25-0.61l-0.198-0.736c-0.191-0.711-0.763-1.256-1.484-1.469l0.716-5.775c0.030-0.241 0.107-0.475 0.228-0.689 0.445-0.789 1.319-2.305 2.168-3.585 0.667-1.006 1.096-2.163 1.241-3.345 0.22-1.799 0.652-4.097 0.759-4.656 0.474-0.63 0.693-1.463 0.632-2.441-0.017-0.272-0.066-0.536-0.148-0.787 0.185-0.509 0.714-1.972 1.036-2.886 0.125-0.354 0.011-0.74-0.297-0.986zM6.864 26.398c-0.851 0.314-1.368 1.122-1.258 1.965l0.206 1.577c0.034 0.262 0.257 0.468 0.54 0.499 0.358 0.039 0.679 0.191 0.917 0.419h-1.735l-0.721-4.984c-0.044-0.305 0.125-0.605 0.42-0.746 1.368-0.653 2.34-1.847 2.652-3.234 1.108 1.213 1.899 2.359 2.283 3.285l-3.304 1.219zM33.944 18.437c-0.868 1.309-1.756 2.85-2.209 3.652-0.193 0.341-0.314 0.708-0.362 1.090l-0.338 2.725-0.744-3.416c-0.070-0.324 0.010-0.662 0.221-0.928l1.697-2.141c0.938-1.183 1.365-2.64 1.202-4.101-0.035-0.314-0.338-0.542-0.676-0.51s-0.584 0.313-0.549 0.627c0.131 1.178-0.213 2.352-0.969 3.307l-1.697 2.141c-0.416 0.525-0.575 1.192-0.436 1.831l1.515 6.957c0.058 0.267 0.311 0.458 0.604 0.458 0.459 0 0.857 0.288 0.968 0.701l0.007 0.026h-1.766l-4.128-7.872c-0.105-0.2-0.146-0.423-0.12-0.645l0.611-5.029c0.038-0.314-0.205-0.596-0.543-0.632s-0.643 0.19-0.681 0.504l-0.531 4.37c-2.011-0.353-4.774 0.193-6.343 0.581 0.127-0.766-0.081-1.567-0.619-2.211l-0.9-1.078c-0.208-0.25-0.595-0.295-0.864-0.102s-0.318 0.552-0.11 0.802l0.9 1.078c0.503 0.603 0.53 1.431 0.066 2.061l-3.067 4.167c-0.509 0.691-0.525 1.594-0.040 2.3l0.597 0.87c0.096 0.139 0.252 0.233 0.427 0.258l1.358 0.191c0.278 0.039 0.511 0.185 0.654 0.387h-2.756l-2.433-2.257c-0.199-0.184-0.307-0.44-0.298-0.701 0.014-0.412 0.037-0.891 0.067-1.423 0.137-1.829-1.791-4.2-2.952-5.452-0.205-0.221-0.314-0.501-0.308-0.79l0.069-3.288c0.001-0.057-0.101-0.421-0.101-0.421-0.484-1.57-1.6-2.89-3.144-3.715-3.476-1.858-4.082-4.102-3.979-5.658 0.217-3.269 1.457-5.086 2.176-5.878 0.139-0.152 0.379-0.174 0.548-0.049 0.12 0.089 0.144 0.204 0.148 0.265s-0.005 0.176-0.112 0.277c-0.909 0.858-2.004 2.427-2.059 5.027-0.066 3.104 3.233 5.003 5.205 5.859 1.057 0.458 1.942 1.233 2.491 2.18 0 0 0.029 0.049 0.034 0.058 0.091 0.14 0.242 0.238 0.416 0.268 0.176 0.031 0.358-0.012 0.498-0.115 0.641-0.475 5.426-1.546 16.801-3.001 0.814-0.104 1.527-0.521 1.98-1.14 0.114 0.171 0.245 0.329 0.393 0.471 0.624 0.598 1.518 0.913 2.591 0.913 0.040 0 1.615-0.001 1.615-0.001 0.004 0 0.007 0 0.011-0 0.579 0.012 1.108-0.065 1.574-0.228-0.175 0.985-0.403 2.343-0.545 3.503-0.124 1.017-0.493 2.011-1.066 2.876zM36.251 7.607c-0.050 0.127-0.051 0.268 0.001 0.397 0.082 0.203 0.13 0.423 0.145 0.654 0.052 0.839-0.152 1.503-0.589 1.922-0.402 0.386-1.025 0.58-1.802 0.563-0.006-0-0.012-0-0.018-0s-1.526-0.001-1.555 0.001c-0.768 0.013-1.384-0.181-1.783-0.564-0.437-0.419-0.64-1.083-0.589-1.922 0.014-0.23 0.063-0.451 0.145-0.654 0.051-0.128 0.051-0.268 0.002-0.394-0-0.001-0.001-0.003-0.001-0.004-0.059-0.162-0.564-1.553-0.939-2.607 1.203 0.487 2 1.356 2.009 1.365 0.173 0.193 0.462 0.258 0.712 0.161 0.788-0.308 1.693-0.308 2.481 0 0.249 0.097 0.537 0.032 0.711-0.16 0.009-0.010 0.807-0.879 2.010-1.366-0.375 1.056-0.881 2.449-0.939 2.608z"></path>
<path fill="#fffdfb" style="fill: var(--color1, #fffdfb)" d="M30.206 7.607l0.001 0.004c0.362-0.944 0.362-0.944 1.068-1.247-0.008-0.009-0.806-0.878-2.009-1.365 0.375 1.055 0.88 2.446 0.939 2.607z"></path>
<path fill="#fffdfb" style="fill: var(--color1, #fffdfb)" d="M37.19 4.999c-1.203 0.487-2.001 1.356-2.010 1.366 1.021 0.298 1.033 0.519 1.069 1.218l0.001 0.024c0.058-0.159 0.564-1.552 0.939-2.608z"></path>
<path fill="#fffdfb" style="fill: var(--color1, #fffdfb)" d="M3.419 1.275c-0.72 0.792-1.96 2.609-2.176 5.878l0.701-0.358c0.055-2.6 1.15-4.169 2.059-5.027 0.106-0.1 0.115-0.216 0.112-0.277s-0.028-0.176-0.148-0.265c-0.169-0.125-0.409-0.104-0.548 0.049z"></path>
</symbol>
<symbol id="icon-icon06" viewBox="0 0 31 32">
<path fill="#fffdfb" style="fill: var(--color1, #fffdfb)" d="M11.218 10.251c-0.187 0.441-0.281 0.908-0.278 1.386 0.005 0.962 0.407 1.874 1.13 2.569s1.689 1.094 2.717 1.123c0.802 0.022 1.594-0.184 2.265-0.586 0.638 0.382 1.384 0.587 2.145 0.587 0.040 0 0.080-0.001 0.12-0.002 1.018-0.029 1.976-0.421 2.698-1.104s1.13-1.583 1.149-2.535c0.012-0.595-0.122-1.167-0.4-1.698-0.254-0.486-2.307-2.592-3.033-3.364-0.182-0.193 0.307 0.483 0.1 0.653s-0.88-0.1-0.698 0.093c0.657 0.699 2.524 2.622 2.735 3.027 0.207 0.397 0.308 0.825 0.299 1.271-0.030 1.483-1.295 2.68-2.88 2.725-0.695 0.020-1.38-0.19-1.926-0.592-0.181-0.133-0.435-0.133-0.616 0-0.546 0.401-1.231 0.611-1.926 0.592-1.58-0.045-2.873-1.285-2.88-2.764-0.002-0.359 0.068-0.708 0.208-1.038 0.323-0.763 1.023-1.625 2.339-2.884 1.236-1.183 3.235-1.327 4.649-0.336 0.22 0.154 0.533 0.113 0.698-0.093s0.12-0.498-0.1-0.653c-1.813-1.271-4.375-1.086-5.96 0.43-1.433 1.371-2.172 2.296-2.553 3.192z"></path>
<path fill="#fffdfb" style="fill: var(--color1, #fffdfb)" d="M14.42 5.563c1.282 0 2.324-1.248 2.324-2.782s-1.043-2.782-2.324-2.782c-1.281 0-2.324 1.248-2.324 2.782s1.043 2.782 2.324 2.782zM14.42 0.932c0.719 0 1.327 0.847 1.327 1.849s-0.608 1.849-1.327 1.849c-0.719 0-1.327-0.847-1.327-1.849s0.608-1.849 1.327-1.849z"></path>
<path fill="#fffdfb" style="fill: var(--color1, #fffdfb)" d="M14.42 0.932c0.719 0 1.327 0.847 1.327 1.849s-0.608 1.849-1.327 1.849c-0.719 0-1.327-0.847-1.327-1.849s0.608-1.849 1.327-1.849z"></path>
<path fill="#fffdfb" style="fill: var(--color1, #fffdfb)" d="M9.659 8.897c1.034 0 1.844-0.955 1.844-2.173s-0.81-2.173-1.844-2.173c-1.034 0-1.844 0.955-1.844 2.173s0.81 2.173 1.844 2.173zM9.659 5.483c0.459 0 0.847 0.568 0.847 1.241s-0.388 1.241-0.847 1.241c-0.459 0-0.847-0.568-0.847-1.241s0.388-1.241 0.847-1.241z"></path>
<path fill="#fffdfb" style="fill: var(--color1, #fffdfb)" d="M9.659 5.483c0.459 0 0.847 0.568 0.847 1.241s-0.388 1.241-0.847 1.241c-0.459 0-0.847-0.568-0.847-1.241s0.388-1.241 0.847-1.241z"></path>
<path fill="#fffdfb" style="fill: var(--color1, #fffdfb)" d="M24.256 8.897c1.034 0 1.844-0.955 1.844-2.173s-0.81-2.173-1.844-2.173c-1.034 0-1.844 0.955-1.844 2.173s0.81 2.173 1.844 2.173zM24.256 5.483c0.459 0 0.847 0.568 0.847 1.241s-0.388 1.241-0.847 1.241c-0.459 0-0.847-0.568-0.847-1.241s0.388-1.241 0.847-1.241z"></path>
<path fill="#fffdfb" style="fill: var(--color1, #fffdfb)" d="M24.256 5.483c0.459 0 0.847 0.568 0.847 1.241s-0.388 1.241-0.847 1.241c-0.459 0-0.847-0.568-0.847-1.241s0.388-1.241 0.847-1.241z"></path>
<path fill="#fffdfb" style="fill: var(--color1, #fffdfb)" d="M20.256 5.563c1.282 0 2.324-1.248 2.324-2.782s-1.043-2.782-2.324-2.782c-1.282 0-2.324 1.248-2.324 2.782s1.043 2.782 2.324 2.782zM20.256 0.932c0.719 0 1.327 0.847 1.327 1.849s-0.608 1.849-1.327 1.849c-0.719 0-1.327-0.847-1.327-1.849s0.608-1.849 1.327-1.849z"></path>
<path fill="#fffdfb" style="fill: var(--color1, #fffdfb)" d="M20.256 0.932c0.719 0 1.327 0.847 1.327 1.849s-0.608 1.849-1.327 1.849c-0.719 0-1.327-0.847-1.327-1.849s0.608-1.849 1.327-1.849z"></path>
<path fill="#fffdfb" style="fill: var(--color1, #fffdfb)" d="M29.729 14.838c-0.506-0.473-1.178-0.733-1.893-0.733s-1.387 0.26-1.893 0.733l-2.935 2.744c-0.49-0.504-1.197-0.822-1.981-0.822h-4.204c-0.275 0 0.526 0.209 0.526 0.466s-0.802 0.466-0.526 0.466h4.204c0.926 0 1.679 0.704 1.679 1.57s-0.753 1.57-1.679 1.57h-4.204c-0.275 0-0.499 0.209-0.499 0.466s0.223 0.466 0.499 0.466h4.204c1.476 0 2.677-1.123 2.677-2.503 0-0.302-0.058-0.592-0.163-0.861 0.006-0.005 0.012-0.009 0.017-0.015l3.091-2.89c0.655-0.612 1.72-0.612 2.375 0s0.655 1.608 0 2.22l-6.197 5.794h-5.715c-0.275 0 0.238 0.209 0.238 0.466s-0.275 0.466 0 0.466h5.684c0.132 0 0.259-0.049 0.353-0.137l6.343-5.93c1.044-0.976 1.044-2.563 0-3.539z"></path>
<path fill="#fffdfb" style="fill: var(--color1, #fffdfb)" d="M17.478 23.511h-2.27c-0.131 0-0.257 0.048-0.35 0.135l-1.568 1.448-3.831-3.582c-0.073-0.256-0.11-0.52-0.11-0.786 0-1.668 1.451-3.025 3.236-3.025 0.029 0 0.058-0.003 0.086-0.007h4.383c0.275 0 0.499-0.209 0.499-0.466s-0.223-0.466-0.499-0.466h-4.864c-0.081 0-0.157 0.018-0.224 0.050-1.999 0.275-3.547 1.861-3.611 3.79l-0.403-0.377c-0.195-0.182-0.51-0.182-0.705 0l-2.642 2.47c-0.017 0.016-0.032 0.033-0.046 0.050l-4.423 4.626c-0.082 0.085-0.127 0.195-0.127 0.31l-0.008 3.831c-0.001 0.257 0.222 0.466 0.497 0.467l8.219 0.021c0.132 0 0.259-0.049 0.353-0.137l5.313-4.968c0.094-0.087 0.146-0.206 0.146-0.33s-0.053-0.242-0.146-0.33l-0.452-0.423 1.483-1.37h2.065c0.275 0 0.499-0.209 0.499-0.466s-0.223-0.466-0.499-0.466zM8.51 31.067l-7.512-0.020 0.007-3.188 3.974-4.156 5.704 5.333-2.172 2.031zM11.417 28.349l-5.726-5.353 1.906-1.782 5.726 5.353-1.906 1.782z"></path>
</symbol>
<symbol id="icon-icon01" viewBox="0 0 18 32">
<path fill="#fffdfb" style="fill: var(--color1, #fffdfb)" d="M17.56 7.354c0.263 0 0.477 0.213 0.477 0.477s-0.213 0.477-0.477 0.477h-4.264c-0.263 0-0.477-0.213-0.477-0.477s0.213-0.477 0.477-0.477h4.264zM15.848 9.982c0-0.263-0.213-0.477-0.477-0.477h-2.076c-0.263 0-0.477 0.213-0.477 0.477s0.213 0.477 0.477 0.477h2.076c0.263 0 0.477-0.213 0.477-0.477zM12.819 12.134c0 0.263 0.213 0.477 0.477 0.477h4.264c0.263 0 0.477-0.213 0.477-0.477s-0.213-0.477-0.477-0.477h-4.264c-0.263 0-0.477 0.213-0.477 0.477zM15.848 14.286c0-0.263-0.213-0.477-0.477-0.477h-2.076c-0.263 0-0.477 0.213-0.477 0.477s0.213 0.477 0.477 0.477h2.076c0.263 0 0.477-0.213 0.477-0.477zM12.819 16.438c0 0.263 0.213 0.477 0.477 0.477h4.264c0.263 0 0.477-0.213 0.477-0.477s-0.213-0.477-0.477-0.477h-4.264c-0.263 0-0.477 0.213-0.477 0.477zM13.632 25.096c0 3.807-3.058 6.904-6.816 6.904s-6.816-3.097-6.816-6.904c0-2.467 1.279-4.709 3.366-5.949v-15.652c0-1.927 1.548-3.495 3.45-3.495s3.45 1.568 3.45 3.495v15.652c2.087 1.239 3.366 3.482 3.366 5.949zM12.687 25.096c0-2.093-1.149-4.396-2.998-5.347l-0.368-0.19v-16.064c0-1.176-1.345-2.541-2.505-2.541s-2.505 1.366-2.505 2.541v16.064l-0.368 0.19c-1.849 0.952-2.998 3.254-2.998 5.347 0 3.055 2.855 5.951 5.871 5.951s5.871-2.896 5.871-5.951zM11.164 25.096c0 2.428-1.95 4.404-4.348 4.404s-4.348-1.975-4.348-4.404c0-1.99 1.728-3.738 3.629-4.25l0.25-0.067v-7.942c0-0.259 0.21-0.469 0.469-0.469s0.469 0.21 0.469 0.469v7.942l0.25 0.068c1.902 0.512 3.629 2.26 3.629 4.25zM7.415 22.154c-0.104-0.466-0.549-0.356-1.021-0.247-1.648 0.378-2.799 1.838-2.799 3.551 0 0.485 0 1.004 0.614 1.004 0.326 0 0.401-0.541 0.401-1.026 0-0.871 0.532-2.17 1.784-2.462 0.466-0.108 1.126-0.349 1.021-0.821z"></path>
</symbol>
</defs>
</svg>
