<!-- Generated by IcoMoon.io -->
<svg version="1.1" xmlns="http://www.w3.org/2000/svg" width="37" height="32" viewBox="0 0 37 32">
<title>button_paw</title>
<path fill="#ff7236" d="M29.873 11.599c-5.27 3.023-4.373 11.845 1.344 11.845 2.466 0 4.599-1.854 5.549-4.223 2.194-5.473-2.369-10.218-6.893-7.622z"></path>
<path fill="#ff7236" d="M24.46 12.692c6.323 0 8.217-10.738 2.209-12.503-2.737-0.804-5.849 1.125-6.849 4.652-1.122 3.953 1.085 7.851 4.64 7.851z"></path>
<path fill="#ff7236" d="M22.834 31.805c-0.878-0.243-2.437-0.399-4.068-0.422-1.724-0.025-3.53 0.098-4.698 0.422-3.155 0.879-7.448-1.247-6.506-5.664 0.871-4.083 4.002-3.85 4.742-7.719 0.746-3.91 3.644-5.797 6.462-5.65 2.608 0.137 5.146 2.017 5.837 5.651 0.736 3.872 3.86 3.637 4.73 7.718 0.945 4.42-3.357 6.535-6.499 5.664z"></path>
<path fill="#ff7236" d="M13.331 12.692c1.789 0 3.325-1.039 4.178-2.629 2.537-4.728-1.63-11.272-6.388-9.871-6.018 1.77-4.11 12.499 2.21 12.499z"></path>
<path fill="#ff7236" d="M10.473 19.929c2.030-4.968-2.782-11.036-7.378-9.127-5.536 2.3-3.095 12.218 2.993 12.218 1.954 0 3.614-1.203 4.386-3.091z"></path>
<path fill="#ff7236" d="M22.834 31.805c-0.878-0.243-2.437-0.399-4.068-0.422v-18.611c2.608 0.137 5.146 2.017 5.837 5.651 0.736 3.872 3.86 3.637 4.73 7.718 0.945 4.42-3.357 6.535-6.499 5.664z"></path>
</svg>
