<!-- Generated by IcoMoon.io -->
<svg version="1.1" xmlns="http://www.w3.org/2000/svg" width="31" height="32" viewBox="0 0 31 32">
<title>icon06</title>
<path fill="#fffdfb" d="M11.218 10.251c-0.187 0.441-0.281 0.908-0.278 1.386 0.005 0.962 0.407 1.874 1.13 2.569s1.689 1.094 2.717 1.123c0.802 0.022 1.594-0.184 2.265-0.586 0.638 0.382 1.384 0.587 2.145 0.587 0.040 0 0.080-0.001 0.12-0.002 1.018-0.029 1.976-0.421 2.698-1.104s1.13-1.583 1.149-2.535c0.012-0.595-0.122-1.167-0.4-1.698-0.254-0.486-2.307-2.592-3.033-3.364-0.182-0.193 0.307 0.483 0.1 0.653s-0.88-0.1-0.698 0.093c0.657 0.699 2.524 2.622 2.735 3.027 0.207 0.397 0.308 0.825 0.299 1.271-0.030 1.483-1.295 2.68-2.88 2.725-0.695 0.020-1.38-0.19-1.926-0.592-0.181-0.133-0.435-0.133-0.616 0-0.546 0.401-1.231 0.611-1.926 0.592-1.58-0.045-2.873-1.285-2.88-2.764-0.002-0.359 0.068-0.708 0.208-1.038 0.323-0.763 1.023-1.625 2.339-2.884 1.236-1.183 3.235-1.327 4.649-0.336 0.22 0.154 0.533 0.113 0.698-0.093s0.12-0.498-0.1-0.653c-1.813-1.271-4.375-1.086-5.96 0.43-1.433 1.371-2.172 2.296-2.553 3.192z"></path>
<path fill="#fffdfb" d="M14.42 5.563c1.282 0 2.324-1.248 2.324-2.782s-1.043-2.782-2.324-2.782c-1.281 0-2.324 1.248-2.324 2.782s1.043 2.782 2.324 2.782zM14.42 0.932c0.719 0 1.327 0.847 1.327 1.849s-0.608 1.849-1.327 1.849c-0.719 0-1.327-0.847-1.327-1.849s0.608-1.849 1.327-1.849z"></path>
<path fill="#fffdfb" d="M14.42 0.932c0.719 0 1.327 0.847 1.327 1.849s-0.608 1.849-1.327 1.849c-0.719 0-1.327-0.847-1.327-1.849s0.608-1.849 1.327-1.849z"></path>
<path fill="#fffdfb" d="M9.659 8.897c1.034 0 1.844-0.955 1.844-2.173s-0.81-2.173-1.844-2.173c-1.034 0-1.844 0.955-1.844 2.173s0.81 2.173 1.844 2.173zM9.659 5.483c0.459 0 0.847 0.568 0.847 1.241s-0.388 1.241-0.847 1.241c-0.459 0-0.847-0.568-0.847-1.241s0.388-1.241 0.847-1.241z"></path>
<path fill="#fffdfb" d="M9.659 5.483c0.459 0 0.847 0.568 0.847 1.241s-0.388 1.241-0.847 1.241c-0.459 0-0.847-0.568-0.847-1.241s0.388-1.241 0.847-1.241z"></path>
<path fill="#fffdfb" d="M24.256 8.897c1.034 0 1.844-0.955 1.844-2.173s-0.81-2.173-1.844-2.173c-1.034 0-1.844 0.955-1.844 2.173s0.81 2.173 1.844 2.173zM24.256 5.483c0.459 0 0.847 0.568 0.847 1.241s-0.388 1.241-0.847 1.241c-0.459 0-0.847-0.568-0.847-1.241s0.388-1.241 0.847-1.241z"></path>
<path fill="#fffdfb" d="M24.256 5.483c0.459 0 0.847 0.568 0.847 1.241s-0.388 1.241-0.847 1.241c-0.459 0-0.847-0.568-0.847-1.241s0.388-1.241 0.847-1.241z"></path>
<path fill="#fffdfb" d="M20.256 5.563c1.282 0 2.324-1.248 2.324-2.782s-1.043-2.782-2.324-2.782c-1.282 0-2.324 1.248-2.324 2.782s1.043 2.782 2.324 2.782zM20.256 0.932c0.719 0 1.327 0.847 1.327 1.849s-0.608 1.849-1.327 1.849c-0.719 0-1.327-0.847-1.327-1.849s0.608-1.849 1.327-1.849z"></path>
<path fill="#fffdfb" d="M20.256 0.932c0.719 0 1.327 0.847 1.327 1.849s-0.608 1.849-1.327 1.849c-0.719 0-1.327-0.847-1.327-1.849s0.608-1.849 1.327-1.849z"></path>
<path fill="#fffdfb" d="M29.729 14.838c-0.506-0.473-1.178-0.733-1.893-0.733s-1.387 0.26-1.893 0.733l-2.935 2.744c-0.49-0.504-1.197-0.822-1.981-0.822h-4.204c-0.275 0 0.526 0.209 0.526 0.466s-0.802 0.466-0.526 0.466h4.204c0.926 0 1.679 0.704 1.679 1.57s-0.753 1.57-1.679 1.57h-4.204c-0.275 0-0.499 0.209-0.499 0.466s0.223 0.466 0.499 0.466h4.204c1.476 0 2.677-1.123 2.677-2.503 0-0.302-0.058-0.592-0.163-0.861 0.006-0.005 0.012-0.009 0.017-0.015l3.091-2.89c0.655-0.612 1.72-0.612 2.375 0s0.655 1.608 0 2.22l-6.197 5.794h-5.715c-0.275 0 0.238 0.209 0.238 0.466s-0.275 0.466 0 0.466h5.684c0.132 0 0.259-0.049 0.353-0.137l6.343-5.93c1.044-0.976 1.044-2.563 0-3.539z"></path>
<path fill="#fffdfb" d="M17.478 23.511h-2.27c-0.131 0-0.257 0.048-0.35 0.135l-1.568 1.448-3.831-3.582c-0.073-0.256-0.11-0.52-0.11-0.786 0-1.668 1.451-3.025 3.236-3.025 0.029 0 0.058-0.003 0.086-0.007h4.383c0.275 0 0.499-0.209 0.499-0.466s-0.223-0.466-0.499-0.466h-4.864c-0.081 0-0.157 0.018-0.224 0.050-1.999 0.275-3.547 1.861-3.611 3.79l-0.403-0.377c-0.195-0.182-0.51-0.182-0.705 0l-2.642 2.47c-0.017 0.016-0.032 0.033-0.046 0.050l-4.423 4.626c-0.082 0.085-0.127 0.195-0.127 0.31l-0.008 3.831c-0.001 0.257 0.222 0.466 0.497 0.467l8.219 0.021c0.132 0 0.259-0.049 0.353-0.137l5.313-4.968c0.094-0.087 0.146-0.206 0.146-0.33s-0.053-0.242-0.146-0.33l-0.452-0.423 1.483-1.37h2.065c0.275 0 0.499-0.209 0.499-0.466s-0.223-0.466-0.499-0.466zM8.51 31.067l-7.512-0.020 0.007-3.188 3.974-4.156 5.704 5.333-2.172 2.031zM11.417 28.349l-5.726-5.353 1.906-1.782 5.726 5.353-1.906 1.782z"></path>
</svg>
