<!-- Generated by IcoMoon.io -->
<svg version="1.1" xmlns="http://www.w3.org/2000/svg" width="39" height="32" viewBox="0 0 39 32">
<title>icon05</title>
<path fill="#fffdfb" d="M38.217 3.933c-0.272-0.217-0.653-0.269-0.995-0.167-1.271 0.382-2.227 1.144-2.686 1.567-0.849-0.242-1.767-0.242-2.616 0-0.465-0.428-1.439-1.203-2.733-1.581-0.386-0.112-0.804-0.001-1.067 0.292-0.223 0.248-0.279 0.591-0.171 0.898 0.323 0.916 0.845 2.359 1.028 2.863-0.081 0.252-0.131 0.516-0.148 0.787-0.016 0.261-0.011 0.51 0.012 0.749l-0.361 0.71c-0.237 0.466-0.71 0.789-1.26 0.859-1.999 0.256-5.89 0.772-9.491 1.358-4.661 0.758-6.508 1.257-7.3 1.563-0.676-0.953-1.638-1.728-2.759-2.214-1.701-0.738-4.548-2.343-4.496-4.801 0.047-2.224 0.954-3.538 1.706-4.249 0.321-0.303 0.49-0.721 0.462-1.146s-0.249-0.822-0.608-1.089c-0.694-0.515-1.687-0.425-2.259 0.204-1.905 2.097-2.362 5-2.464 6.544-0.103 1.556 0.39 2.997 1.465 4.28 0.771 0.921 1.824 1.741 3.129 2.438 1.265 0.676 2.179 1.755 2.575 3.039 0.035 0.113 0.051 0.23 0.049 0.347l-0.013 0.593c-0.006 0.29-0.031 0.58-0.074 0.867l-0.434 2.87c-0.17 1.126-0.949 2.073-2.040 2.593-0.758 0.361-1.191 1.131-1.077 1.914l0.792 5.48c0.041 0.284 0.302 0.495 0.611 0.495h3.259c0.132 0 0.263-0.032 0.371-0.103 0.219-0.145 0.308-0.394 0.24-0.621l-0.035-0.117c-0.256-0.855-0.957-1.509-1.848-1.761l-0.153-1.172c-0.043-0.329 0.158-0.643 0.49-0.765l3.114-1.149c-0.001 0.031-0.002 0.061-0.004 0.090-0 0.004-0.001 0.007-0.001 0.011-0.031 0.542-0.054 1.030-0.068 1.451-0.020 0.578 0.218 1.137 0.658 1.546l2.614 2.424c0.116 0.107 0.272 0.167 0.436 0.167h3.779c0.325 0 0.599-0.247 0.617-0.548 0.061-1.048-0.734-1.955-1.854-2.112l-1.081-0.152-0.446-0.651c-0.219-0.32-0.212-0.729 0.018-1.042l2.947-4.004c0.896-0.257 4.673-1.27 6.889-0.79 0.029 0.271 0.11 0.535 0.239 0.783l4.297 8.193c0.103 0.197 0.318 0.321 0.554 0.321h2.923c0.13 0 0.259-0.031 0.365-0.1 0.218-0.14 0.311-0.384 0.25-0.61l-0.198-0.736c-0.191-0.711-0.763-1.256-1.484-1.469l0.716-5.775c0.030-0.241 0.107-0.475 0.228-0.689 0.445-0.789 1.319-2.305 2.168-3.585 0.667-1.006 1.096-2.163 1.241-3.345 0.22-1.799 0.652-4.097 0.759-4.656 0.474-0.63 0.693-1.463 0.632-2.441-0.017-0.272-0.066-0.536-0.148-0.787 0.185-0.509 0.714-1.972 1.036-2.886 0.125-0.354 0.011-0.74-0.297-0.986zM6.864 26.398c-0.851 0.314-1.368 1.122-1.258 1.965l0.206 1.577c0.034 0.262 0.257 0.468 0.54 0.499 0.358 0.039 0.679 0.191 0.917 0.419h-1.735l-0.721-4.984c-0.044-0.305 0.125-0.605 0.42-0.746 1.368-0.653 2.34-1.847 2.652-3.234 1.108 1.213 1.899 2.359 2.283 3.285l-3.304 1.219zM33.944 18.437c-0.868 1.309-1.756 2.85-2.209 3.652-0.193 0.341-0.314 0.708-0.362 1.090l-0.338 2.725-0.744-3.416c-0.070-0.324 0.010-0.662 0.221-0.928l1.697-2.141c0.938-1.183 1.365-2.64 1.202-4.101-0.035-0.314-0.338-0.542-0.676-0.51s-0.584 0.313-0.549 0.627c0.131 1.178-0.213 2.352-0.969 3.307l-1.697 2.141c-0.416 0.525-0.575 1.192-0.436 1.831l1.515 6.957c0.058 0.267 0.311 0.458 0.604 0.458 0.459 0 0.857 0.288 0.968 0.701l0.007 0.026h-1.766l-4.128-7.872c-0.105-0.2-0.146-0.423-0.12-0.645l0.611-5.029c0.038-0.314-0.205-0.596-0.543-0.632s-0.643 0.19-0.681 0.504l-0.531 4.37c-2.011-0.353-4.774 0.193-6.343 0.581 0.127-0.766-0.081-1.567-0.619-2.211l-0.9-1.078c-0.208-0.25-0.595-0.295-0.864-0.102s-0.318 0.552-0.11 0.802l0.9 1.078c0.503 0.603 0.53 1.431 0.066 2.061l-3.067 4.167c-0.509 0.691-0.525 1.594-0.040 2.3l0.597 0.87c0.096 0.139 0.252 0.233 0.427 0.258l1.358 0.191c0.278 0.039 0.511 0.185 0.654 0.387h-2.756l-2.433-2.257c-0.199-0.184-0.307-0.44-0.298-0.701 0.014-0.412 0.037-0.891 0.067-1.423 0.137-1.829-1.791-4.2-2.952-5.452-0.205-0.221-0.314-0.501-0.308-0.79l0.069-3.288c0.001-0.057-0.101-0.421-0.101-0.421-0.484-1.57-1.6-2.89-3.144-3.715-3.476-1.858-4.082-4.102-3.979-5.658 0.217-3.269 1.457-5.086 2.176-5.878 0.139-0.152 0.379-0.174 0.548-0.049 0.12 0.089 0.144 0.204 0.148 0.265s-0.005 0.176-0.112 0.277c-0.909 0.858-2.004 2.427-2.059 5.027-0.066 3.104 3.233 5.003 5.205 5.859 1.057 0.458 1.942 1.233 2.491 2.18 0 0 0.029 0.049 0.034 0.058 0.091 0.14 0.242 0.238 0.416 0.268 0.176 0.031 0.358-0.012 0.498-0.115 0.641-0.475 5.426-1.546 16.801-3.001 0.814-0.104 1.527-0.521 1.98-1.14 0.114 0.171 0.245 0.329 0.393 0.471 0.624 0.598 1.518 0.913 2.591 0.913 0.040 0 1.615-0.001 1.615-0.001 0.004 0 0.007 0 0.011-0 0.579 0.012 1.108-0.065 1.574-0.228-0.175 0.985-0.403 2.343-0.545 3.503-0.124 1.017-0.493 2.011-1.066 2.876zM36.251 7.607c-0.050 0.127-0.051 0.268 0.001 0.397 0.082 0.203 0.13 0.423 0.145 0.654 0.052 0.839-0.152 1.503-0.589 1.922-0.402 0.386-1.025 0.58-1.802 0.563-0.006-0-0.012-0-0.018-0s-1.526-0.001-1.555 0.001c-0.768 0.013-1.384-0.181-1.783-0.564-0.437-0.419-0.64-1.083-0.589-1.922 0.014-0.23 0.063-0.451 0.145-0.654 0.051-0.128 0.051-0.268 0.002-0.394-0-0.001-0.001-0.003-0.001-0.004-0.059-0.162-0.564-1.553-0.939-2.607 1.203 0.487 2 1.356 2.009 1.365 0.173 0.193 0.462 0.258 0.712 0.161 0.788-0.308 1.693-0.308 2.481 0 0.249 0.097 0.537 0.032 0.711-0.16 0.009-0.010 0.807-0.879 2.010-1.366-0.375 1.056-0.881 2.449-0.939 2.608z"></path>
<path fill="#fffdfb" d="M30.206 7.607l0.001 0.004c0.362-0.944 0.362-0.944 1.068-1.247-0.008-0.009-0.806-0.878-2.009-1.365 0.375 1.055 0.88 2.446 0.939 2.607z"></path>
<path fill="#fffdfb" d="M37.19 4.999c-1.203 0.487-2.001 1.356-2.010 1.366 1.021 0.298 1.033 0.519 1.069 1.218l0.001 0.024c0.058-0.159 0.564-1.552 0.939-2.608z"></path>
<path fill="#fffdfb" d="M3.419 1.275c-0.72 0.792-1.96 2.609-2.176 5.878l0.701-0.358c0.055-2.6 1.15-4.169 2.059-5.027 0.106-0.1 0.115-0.216 0.112-0.277s-0.028-0.176-0.148-0.265c-0.169-0.125-0.409-0.104-0.548 0.049z"></path>
</svg>
