<!-- Generated by IcoMoon.io -->
<svg version="1.1" xmlns="http://www.w3.org/2000/svg" width="48" height="32" viewBox="0 0 48 32">
<title>icon04</title>
<path fill="#fffdfb" stroke="#fffdfb" stroke-linejoin="miter" stroke-linecap="butt" stroke-miterlimit="4" stroke-width="0.9143" d="M44.949 10.021v0c-0.065-0.436-0.46-0.783-0.953-0.783h-4.089l-0.082-0.354c-0.595-2.57-2.944-3.341-3.214-3.427l-0.18-0.058-0.087-0.168c-1.27-2.451-3.894-2.574-4.188-2.584l-0.185-0.006-0.129-0.134c-1.553-1.613-3.655-1.629-4.782-1.35l-0.178 0.044-0.159-0.091c-0.999-0.572-3.023-1.127-4.989-0l-0.159 0.091-0.178-0.044c-1.127-0.279-3.23-0.262-4.783 1.35l-0.129 0.134-0.185 0.006c-0.291 0.010-2.919 0.133-4.189 2.585l-0.087 0.168-0.18 0.058c-0.274 0.088-2.621 0.862-3.214 3.427l-0.082 0.354h-4.089c-0.493 0-0.888 0.347-0.953 0.783v0l-3.041 20.487c-0.038 0.254 0.040 0.515 0.22 0.715M44.949 10.021l-44.262 21.202M44.949 10.021l3.042 20.486c0.038 0.254-0.041 0.515-0.22 0.715M44.949 10.021l2.821 21.201M0.687 31.223c0.181 0.201 0.448 0.32 0.733 0.32h45.618c0.285 0 0.552-0.119 0.733-0.32M0.687 31.223l47.084-0M14.023 5.613l-0 0c-0.198 0.712-0.813 1.227-1.546 1.329-0.006 0.003-0.014 0.008-0.023 0.013-0.048 0.028-0.115 0.074-0.201 0.139-0.169 0.129-0.384 0.312-0.609 0.527-0.231 0.22-0.462 0.463-0.664 0.702h26.564c-0.188-0.28-0.388-0.553-0.574-0.79-0.167-0.213-0.318-0.39-0.431-0.511-0.036-0.039-0.067-0.070-0.090-0.093-0.699-0.126-1.278-0.629-1.47-1.317l-20.955-0zM14.023 5.613c0.088-0.317 0.465-0.681 1.051-0.956 0.572-0.268 1.188-0.377 1.567-0.315 0.75 0.122 1.51-0.207 1.913-0.848 0.194-0.309 0.583-0.575 1.056-0.71 0.473-0.135 0.954-0.116 1.304 0.049 0.687 0.324 1.511 0.212 2.080-0.289 0.281-0.247 0.736-0.397 1.233-0.397s0.952 0.149 1.234 0.397c0.569 0.501 1.393 0.613 2.080 0.289l0-0M14.023 5.613l13.519-2.781M27.542 2.832c0.336-0.159 0.953-0.188 1.593-0.044 0.309 0.069 0.599 0.174 0.834 0.303 0.239 0.131 0.396 0.273 0.478 0.403M27.542 2.832l4.818 1.51M32.361 4.342l-0 0c-0.749 0.122-1.51-0.206-1.913-0.848M32.361 4.342c0.387-0.063 1.003 0.049 1.573 0.32M32.361 4.342l1.573 0.32M30.447 3.494l0 0c-0-0-0-0-0-0zM33.934 4.662c0.586 0.278 0.959 0.642 1.045 0.951l-1.045-0.951zM12.326 6.040h-0c-0.142 0.016-0.271 0.089-0.338 0.129-0.088 0.052-0.186 0.121-0.287 0.197-0.203 0.154-0.443 0.361-0.688 0.594-0.481 0.458-1.022 1.061-1.317 1.602l-0.368 0.676h29.802l-0.369-0.676c-0.301-0.552-0.717-1.142-1.072-1.593-0.178-0.226-0.346-0.424-0.481-0.57-0.067-0.072-0.133-0.138-0.192-0.189-0.029-0.025-0.064-0.054-0.103-0.080l-0.002-0.001c-0.023-0.016-0.113-0.075-0.235-0.089l-0-0c-0.401-0.045-0.718-0.319-0.816-0.672v-0c-0.195-0.703-0.879-1.222-1.534-1.533-0.67-0.318-1.48-0.499-2.113-0.396-0.4 0.065-0.792-0.113-0.992-0.432v-0c-0.193-0.307-0.492-0.543-0.812-0.718-0.324-0.178-0.697-0.309-1.073-0.394-0.732-0.164-1.584-0.173-2.183 0.11-0.362 0.171-0.794 0.109-1.086-0.148v-0c-0.494-0.435-1.187-0.626-1.839-0.625s-1.344 0.192-1.836 0.625v0c-0.292 0.257-0.724 0.319-1.086 0.148v0c-0.599-0.283-1.318-0.279-1.944-0.101-0.625 0.178-1.234 0.552-1.58 1.103l-0 0c-0.2 0.319-0.591 0.497-0.991 0.432l-0-0c-0.623-0.101-1.431 0.075-2.102 0.39-0.657 0.308-1.346 0.826-1.544 1.539-0.098 0.353-0.415 0.627-0.816 0.672zM12.496 6.933c0 0-0 0-0.001 0.001l0.001-0.001zM0.971 30.773l-0.080 0.526h46.675l-0.080-0.526-3.239-21.29h-40.036l-3.24 21.29z"></path>
</svg>
