<!-- Generated by IcoMoon.io -->
<svg version="1.1" xmlns="http://www.w3.org/2000/svg" width="53" height="32" viewBox="0 0 53 32">
<title>icon03</title>
<path fill="#fffdfb" d="M52.473 18.12c-0.23-0.232-4.599-5.691-14.141-5.866-0.92-1.626-4.426-6.911-10.117-6.911h-0.172l-2.529-4.878c-0.172-0.29-0.46-0.465-0.747-0.465h-3.909c-0.345 0-0.632 0.174-0.747 0.465l-2.299 4.82h-0.747c-0.23 0-5.633-0.407-11.267 6.911h-4.369c-0.402 0-0.747 0.29-0.862 0.697-0.057 0.348-1.782 8.711 1.092 12.312 0.92 1.103 2.127 1.684 3.621 1.684h1.207c0.402 2.904 2.874 5.111 5.863 5.111s5.461-2.207 5.863-5.111h16.785c0.402 2.904 2.874 5.111 5.863 5.111s5.461-2.207 5.863-5.111h5.059c0.46 0 0.862-0.407 0.862-0.871v-7.376c0-0.174-0.057-0.407-0.172-0.523zM28.215 7.027c4.024 0 6.783 3.368 8.048 5.227h-12.474v-5.227h4.426zM21.432 1.742h2.817l1.839 3.601h-6.381l1.724-3.601zM17.005 7.027h5.116v5.227h-14.083c4.656-5.401 8.852-5.227 8.967-5.227zM12.349 30.316c-2.299 0-4.196-1.916-4.196-4.24s1.897-4.239 4.196-4.239 4.196 1.916 4.196 4.239c0.058 2.323-1.839 4.24-4.196 4.24zM40.861 30.316c-2.299 0-4.196-1.916-4.196-4.24s1.897-4.239 4.196-4.239c2.299 0 4.196 1.916 4.196 4.239s-1.839 4.24-4.196 4.24zM50.921 25.205h-4.196c-0.402-2.904-2.874-5.111-5.863-5.111s-5.461 2.207-5.863 5.111h-16.785c-0.402-2.904-2.874-5.111-5.863-5.111s-5.461 2.207-5.863 5.111h-1.207c-0.977 0-1.724-0.348-2.299-1.045-1.782-2.265-1.322-7.55-0.862-10.163h35.697c7.99 0 12.187 4.007 13.106 4.995v6.214z"></path>
<path fill="#fffdfb" d="M21.432 1.742h2.817l1.839 3.601h-6.381l1.724-3.601z"></path>
<path fill="#fffdfb" d="M12.349 30.316c-2.299 0-4.196-1.916-4.196-4.24s1.897-4.239 4.196-4.239 4.196 1.916 4.196 4.239c0.058 2.323-1.839 4.24-4.196 4.24z"></path>
<path fill="#fffdfb" d="M40.861 30.316c-2.299 0-4.196-1.916-4.196-4.24s1.897-4.239 4.196-4.239c2.299 0 4.196 1.916 4.196 4.239s-1.839 4.24-4.196 4.24z"></path>
</svg>
