<!-- Generated by IcoMoon.io -->
<svg version="1.1" xmlns="http://www.w3.org/2000/svg" width="41" height="32" viewBox="0 0 41 32">
<title>icon02</title>
<path fill="#fffdfb" d="M40.648 12.648c-0.016-0.352-0.223-1.004-1.427-1.418l-32.099-11.048c-1.645-0.567-3.471 0.239-4.070 1.797l-2.824 7.344c-0.599 1.558 0.253 3.286 1.898 3.853l9.355 3.219c-0.178 1.024 0.119 2.035 0.764 2.809l-1.993 5.183c-0.092 0.239-0.334 0.399-0.602 0.399h-5.839v-1.804c0-0.994-0.855-1.804-1.905-1.804h-1.27c-0.351 0-0.635 0.269-0.635 0.601v9.62c0 0.332 0.284 0.601 0.635 0.601h1.27c1.051 0 1.905-0.809 1.905-1.804v-1.804h5.839c1.865 0 3.546-1.114 4.183-2.773l1.951-5.074c1.116-0.148 2.131-0.765 2.733-1.729l10.933 3.762c0.357 0.123 0.723 0.182 1.083 0.182 1.092-0 2.129-0.537 2.71-1.434l1.255 0.432c0.142 0.049 0.289 0.073 0.435 0.073 0.183 0 0.365-0.038 0.536-0.113 0.307-0.136 0.54-0.376 0.656-0.678l1.738-4.521c0.211-0.55-0.030-1.153-0.542-1.442l2.036-0.899c1.161-0.513 1.307-1.179 1.291-1.531zM2.541 30.196c0 0.331-0.285 0.601-0.635 0.601h-0.635v-8.417h0.635c0.35 0 0.635 0.27 0.635 0.601v7.215zM12.639 25.209c-0.455 1.185-1.657 1.982-2.989 1.982h-5.839v-1.202h5.839c0.8 0 1.522-0.478 1.796-1.19l1.823-4.742c0.209 0.119 0.433 0.221 0.671 0.303 0.169 0.058 0.339 0.104 0.51 0.139l-1.811 4.71zM15.331 19.376c-0.015-0-0.029-0-0.044 0.001-0.302 0.004-0.611-0.043-0.913-0.147-0.353-0.122-0.661-0.309-0.913-0.542-0.023-0.027-0.049-0.051-0.077-0.074-0.473-0.477-0.726-1.124-0.678-1.796l4.586 1.578c-0.464 0.603-1.19 0.958-1.961 0.981zM36.669 16.108l-1.737 4.521-1.195-0.412 1.648-4.286 0.337-0.149 0.947 0.325zM38.82 13.089l-5.164 2.279c-1.119 0.494-3.044 0.573-4.204 0.174l-24.34-8.375c-0.33-0.113 0.499 0.458 0.38 0.771s-1.144 0.246-0.814 0.359l24.34 8.375c0.639 0.22 1.427 0.328 2.231 0.328 0.879 0 1.777-0.129 2.52-0.378l-1.442 3.75c-0.359 0.935-1.455 1.418-2.442 1.078l-27.325-9.403c-0.987-0.34-1.498-1.377-1.139-2.312l1.087-2.826c0.362 0.527 0.901 0.952 1.573 1.183l0.597 0.206c0.329 0.114 0.694-0.047 0.814-0.359s-0.050-0.657-0.38-0.771l-0.597-0.206c-0.987-0.34-1.498-1.377-1.139-2.311l0.869-2.26c0.359-0.935 1.455-1.418 2.442-1.078l32.099 11.049c0.408 0.14 0.559 0.287 0.589 0.341-0.026 0.056-0.162 0.215-0.556 0.388z"></path>
<path fill="#fffdfb" d="M35.424 14.588l3.395-1.499c0.393-0.174 0.53-0.332 0.556-0.388-0.031-0.054-0.181-0.2-0.589-0.341l-32.099-11.049c-0.987-0.34-2.083 0.143-2.442 1.078l-0.869 2.26c-0.359 0.935 0.152 1.971 1.139 2.311l24.937 8.581c1.16 0.4 3.086 0.32 4.204-0.174l1.768-0.781z"></path>
</svg>
