<!-- Generated by IcoMoon.io -->
<svg version="1.1" xmlns="http://www.w3.org/2000/svg" width="18" height="32" viewBox="0 0 18 32">
<title>icon01</title>
<path fill="#fffdfb" d="M17.56 7.354c0.263 0 0.477 0.213 0.477 0.477s-0.213 0.477-0.477 0.477h-4.264c-0.263 0-0.477-0.213-0.477-0.477s0.213-0.477 0.477-0.477h4.264zM15.848 9.982c0-0.263-0.213-0.477-0.477-0.477h-2.076c-0.263 0-0.477 0.213-0.477 0.477s0.213 0.477 0.477 0.477h2.076c0.263 0 0.477-0.213 0.477-0.477zM12.819 12.134c0 0.263 0.213 0.477 0.477 0.477h4.264c0.263 0 0.477-0.213 0.477-0.477s-0.213-0.477-0.477-0.477h-4.264c-0.263 0-0.477 0.213-0.477 0.477zM15.848 14.286c0-0.263-0.213-0.477-0.477-0.477h-2.076c-0.263 0-0.477 0.213-0.477 0.477s0.213 0.477 0.477 0.477h2.076c0.263 0 0.477-0.213 0.477-0.477zM12.819 16.438c0 0.263 0.213 0.477 0.477 0.477h4.264c0.263 0 0.477-0.213 0.477-0.477s-0.213-0.477-0.477-0.477h-4.264c-0.263 0-0.477 0.213-0.477 0.477zM13.632 25.096c0 3.807-3.058 6.904-6.816 6.904s-6.816-3.097-6.816-6.904c0-2.467 1.279-4.709 3.366-5.949v-15.652c0-1.927 1.548-3.495 3.45-3.495s3.45 1.568 3.45 3.495v15.652c2.087 1.239 3.366 3.482 3.366 5.949zM12.687 25.096c0-2.093-1.149-4.396-2.998-5.347l-0.368-0.19v-16.064c0-1.176-1.345-2.541-2.505-2.541s-2.505 1.366-2.505 2.541v16.064l-0.368 0.19c-1.849 0.952-2.998 3.254-2.998 5.347 0 3.055 2.855 5.951 5.871 5.951s5.871-2.896 5.871-5.951zM11.164 25.096c0 2.428-1.95 4.404-4.348 4.404s-4.348-1.975-4.348-4.404c0-1.99 1.728-3.738 3.629-4.25l0.25-0.067v-7.942c0-0.259 0.21-0.469 0.469-0.469s0.469 0.21 0.469 0.469v7.942l0.25 0.068c1.902 0.512 3.629 2.26 3.629 4.25zM7.415 22.154c-0.104-0.466-0.549-0.356-1.021-0.247-1.648 0.378-2.799 1.838-2.799 3.551 0 0.485 0 1.004 0.614 1.004 0.326 0 0.401-0.541 0.401-1.026 0-0.871 0.532-2.17 1.784-2.462 0.466-0.108 1.126-0.349 1.021-0.821z"></path>
</svg>
